<?xml version="1.0" encoding="UTF-8" standalone="no"?>
<svg
   width="1512"
   height="1512"
   viewBox="0 0 1512 1512"
   version="1.1"
   id="SVGRoot"
   sodipodi:docname="openblcmm_icon.svg"
   xml:space="preserve"
   xmlns:sodipodi="http://sodipodi.sourceforge.net/DTD/sodipodi-0.dtd"
   xmlns:xlink="http://www.w3.org/1999/xlink"
   xmlns="http://www.w3.org/2000/svg"
   xmlns:svg="http://www.w3.org/2000/svg"><sodipodi:namedview
     id="namedview14"
     pagecolor="#ffffff"
     bordercolor="#666666"
     borderopacity="1.0"
     showgrid="true" /><defs
     id="defs9"><linearGradient
       id="linearGradient4109"><stop
         style="stop-color:#1b1b1b;stop-opacity:1;"
         offset="0"
         id="stop4113" /><stop
         style="stop-color:#585858;stop-opacity:1;"
         offset="0.76206195"
         id="stop14282" /><stop
         style="stop-color:#7c7c7c;stop-opacity:1;"
         offset="1"
         id="stop4115" /></linearGradient><linearGradient
       xlink:href="#linearGradient4109"
       id="linearGradient4111"
       x1="756.0"
       y1="1480.248"
       x2="756.0"
       y2="31.752"
       gradientUnits="userSpaceOnUse" /></defs><g
     id="layer1"><path
       id="Combined"
       fill="none"
       stroke="#000000"
       stroke-width="1"
       d="M 205.57152,31.752 L 1306.42848,31.752 C 1402.02922,31.752 1480.248,109.97078 1480.248,205.57152 L 1480.248,1306.42848 C 1480.248,1402.02922 1402.02922,1480.248 1306.42848,1480.248 L 1289.91563,1480.248 L 969.56625,412.41675 C 934.62582,295.94864 826.47686,238.58375 756.0,238.58375 C 685.52314,238.58375 577.37418,295.94864 542.43375,412.41675 L 222.08437,1480.248 L 205.57152,1480.248 C 109.97078,1480.248 31.752,1402.02922 31.752,1306.42848 L 31.752,205.57152 C 31.752,109.97078 109.97078,31.752 205.57152,31.752 Z M 1092.36684,1480.248 L 853.54638,454.60484 C 841.50264,402.88154 788.19031,377.40589 756.0,377.40589 C 723.80969,377.40589 670.49736,402.88154 658.45362,454.60484 L 419.63316,1480.248 Z"
       style="fill:url(#linearGradient4111);fill-opacity:1;fill-rule:evenodd;stroke:#ff4f4f;stroke-width:51;stroke-linecap:round;stroke-linejoin:miter;stroke-dasharray:none;stroke-opacity:1"
       sodipodi:nodetypes="ccccccccccccccccccccc" /></g></svg>