<?xml version="1.0" encoding="UTF-8" standalone="no"?>
<!-- Created with Inkscape (http://www.inkscape.org/) -->

<svg
   width="1512"
   height="1512"
   viewBox="0 0 1512 1512"
   version="1.1"
   id="SVGRoot"
   sodipodi:docname="svg_redo.svg"
   xml:space="preserve"
   inkscape:version="1.2.2 (b0a8486541, 2022-12-01)"
   inkscape:export-filename="svg_256.png"
   inkscape:export-xdpi="16.389589"
   inkscape:export-ydpi="16.389589"
   xmlns:inkscape="http://www.inkscape.org/namespaces/inkscape"
   xmlns:sodipodi="http://sodipodi.sourceforge.net/DTD/sodipodi-0.dtd"
   xmlns:xlink="http://www.w3.org/1999/xlink"
   xmlns="http://www.w3.org/2000/svg"
   xmlns:svg="http://www.w3.org/2000/svg"><sodipodi:namedview
     id="namedview14"
     pagecolor="#ffffff"
     bordercolor="#666666"
     borderopacity="1.0"
     inkscape:showpageshadow="2"
     inkscape:pageopacity="0.0"
     inkscape:pagecheckerboard="0"
     inkscape:deskcolor="#d1d1d1"
     inkscape:document-units="px"
     showgrid="true"
     inkscape:zoom="0.44157965"
     inkscape:cx="897.91275"
     inkscape:cy="455.18402"
     inkscape:window-width="1768"
     inkscape:window-height="895"
     inkscape:window-x="-2"
     inkscape:window-y="49"
     inkscape:window-maximized="1"
     inkscape:current-layer="layer1"><inkscape:grid
       type="xygrid"
       id="grid20"
       originx="0"
       originy="0" /></sodipodi:namedview><defs
     id="defs9"><linearGradient
       id="linearGradient4109"><stop
         style="stop-color:#1b1b1b;stop-opacity:1;"
         offset="0"
         id="stop4113" /><stop
         style="stop-color:#585858;stop-opacity:1;"
         offset="0.76206195"
         id="stop14282" /><stop
         style="stop-color:#7c7c7c;stop-opacity:1;"
         offset="1"
         id="stop4115" /></linearGradient><linearGradient
       inkscape:collect="always"
       xlink:href="#linearGradient4109"
       id="linearGradient4111"
       x1="767.35291"
       y1="1411.9606"
       x2="767.35291"
       y2="133.07936"
       gradientUnits="userSpaceOnUse"
       gradientTransform="matrix(1.1315947,0,0,1.1315947,-98.336811,-118.55563)" /></defs><g
     inkscape:label="Layer 1"
     inkscape:groupmode="layer"
     id="layer1"><path
       id="Combined"
       fill="none"
       stroke="#000000"
       stroke-width="1"
       d="m 1275.1887,1478.7374 c 0,0 -281.31455,-1034.76126 -309.98163,-1089.07786 C 936.53996,335.34296 882.22338,241.79771 744.9231,238.78012 607.62282,235.76253 542.74467,385.13316 542.74467,385.13316 L 218.76127,1479.0257 c -14.26043,0 -33.60085,0.029 -33.60085,0.029 -84.7452,0 -143.19844,-88.7613 -143.335453,-172.0479 L 32.772208,342.88681 v -99.58042 c 0,-29.45167 -1.508789,-50.77094 6.261499,-79.9661 C 47.829979,130.37313 66.750255,100.58952 91.615185,77.474801 104.62099,65.374273 118.04926,56.894848 133.86142,49.049116 157.26281,37.41631 171.95847,34.866453 197.23078,30.672005 h 46.77263 82.98368 253.47744 484.32277 242.9159 c 8.8416,0 21.4098,2.051954 30.1759,3.817242 80.3132,16.159186 143.1997,90.059933 143.3355,172.606083 v 706.11571 261.02136 131.2651 c 0,85.1016 -91,173.5114 -176.529,173.5114 z m -506.30582,0.2716 H 417.51475 L 654.39544,454.53769 c 0,0 34.70227,-75.43971 98.07163,-72.42212 63.36936,3.01759 82.98368,40.73745 98.07163,76.94851 15.08794,36.21107 238.9627,1019.76392 238.9627,1019.76392 z"
       style="fill:url(#linearGradient4111);fill-opacity:1;fill-rule:evenodd;stroke:#ff4f4f;stroke-width:50.9218;stroke-linecap:round;stroke-linejoin:miter;stroke-dasharray:none;stroke-opacity:1"
       sodipodi:nodetypes="csscccccsccccccccsccccccccccsscc" /></g></svg>
